<svg xmlns="http://www.w3.org/2000/svg" width="560" height="695" viewBox="0 0 779 966" font-family="Segoe UI, Helvetica, Arial, sans-serif">
<defs>
<marker id="hfull" markerWidth="12" markerHeight="12" refX="9" refY="3.6" orient="auto"><path d="M0 0 L11 3.6 L0 7.2 z" fill="#3d4a55"/></marker>
<marker id="hopen" markerWidth="12" markerHeight="12" refX="9" refY="3.6" orient="auto"><path d="M0 0 L11 3.6 L0 7.2" fill="none" stroke="#8a949e" stroke-width="1.8"/></marker>
</defs>
<rect x="1.5" y="1.5" width="776" height="963" rx="12" fill="#fffef8" stroke="#e7e3cc" stroke-width="1.5"/>
<text x="389.5" y="46" text-anchor="middle" font-size="26" font-weight="400" fill="#159957">Signador - redirectUrl GET</text>
<line x1="92" y1="134" x2="92" y2="900" stroke="#c9d1d8" stroke-width="2.4" stroke-dasharray="3 6"/><line x1="307" y1="134" x2="307" y2="900" stroke="#c9d1d8" stroke-width="2.4" stroke-dasharray="3 6"/><line x1="687" y1="134" x2="687" y2="900" stroke="#c9d1d8" stroke-width="2.4" stroke-dasharray="3 6"/><rect x="32.0" y="86" width="120.0" height="46" rx="8" fill="#eef1f4" stroke="#c4ccd3" stroke-width="1.3"/><text x="92" y="116" text-anchor="middle" fill="#1b2026" font-weight="600" font-size="22">Usuari</text><rect x="233.5" y="86" width="147.0" height="46" rx="8" fill="#eef1f4" stroke="#c4ccd3" stroke-width="1.3"/><text x="307" y="116" text-anchor="middle" fill="#1b2026" font-weight="600" font-size="22">Aplicació</text><rect x="620.0" y="86" width="134.0" height="46" rx="8" fill="#eef1f4" stroke="#c4ccd3" stroke-width="1.3"/><text x="687" y="116" text-anchor="middle" fill="#1b2026" font-weight="600" font-size="22">SIGNADOR</text><rect x="32.0" y="900" width="120.0" height="46" rx="8" fill="#eef1f4" stroke="#c4ccd3" stroke-width="1.3"/><text x="92" y="930" text-anchor="middle" fill="#1b2026" font-weight="600" font-size="22">Usuari</text><rect x="233.5" y="900" width="147.0" height="46" rx="8" fill="#eef1f4" stroke="#c4ccd3" stroke-width="1.3"/><text x="307" y="930" text-anchor="middle" fill="#1b2026" font-weight="600" font-size="22">Aplicació</text><rect x="620.0" y="900" width="134.0" height="46" rx="8" fill="#eef1f4" stroke="#c4ccd3" stroke-width="1.3"/><text x="687" y="930" text-anchor="middle" fill="#1b2026" font-weight="600" font-size="22">SIGNADOR</text><text x="199.5" y="173" text-anchor="middle" fill="#1b2026" font-size="21">Acces web app X</text><line x1="92" y1="184" x2="307" y2="184" stroke="#3d4a55" stroke-width="2.2" marker-end="url(#hfull)"/><text x="329" y="228" fill="#1b2026" font-size="21">HMAC(domini,secret,date)</text><path d="M307 236 h50 v26 h-50" fill="none" stroke="#3d4a55" stroke-width="2.2" marker-end="url(#hfull)"/><text x="497.0" y="275" text-anchor="middle" fill="#1b2026" font-size="21">GET initProcess { Auth }</text><line x1="307" y1="286" x2="687" y2="286" stroke="#3d4a55" stroke-width="2.2" marker-end="url(#hfull)"/><text x="497.0" y="323" text-anchor="middle" fill="#1b2026" font-size="21">response { token,status,message }</text><line x1="687" y1="334" x2="307" y2="334" stroke="#3d4a55" stroke-width="2.2" marker-end="url(#hfull)"/><text x="497.0" y="371" text-anchor="middle" fill="#1b2026" font-size="21">POST startSignProcess { AppletCfg }</text><line x1="307" y1="382" x2="687" y2="382" stroke="#3d4a55" stroke-width="2.2" marker-end="url(#hfull)"/><text x="497.0" y="419" text-anchor="middle" fill="#1b2026" font-size="21">response status OK/KO</text><line x1="687" y1="430" x2="307" y2="430" stroke="#3d4a55" stroke-width="2.2" marker-end="url(#hfull)"/><text x="389.5" y="467" text-anchor="middle" fill="#1b2026" font-size="21">GET signador/?id=token</text><line x1="92" y1="478" x2="687" y2="478" stroke="#3d4a55" stroke-width="2.2" marker-end="url(#hfull)"/><text x="389.5" y="515" text-anchor="middle" fill="#1b2026" font-size="21">JNLP</text><line x1="687" y1="526" x2="92" y2="526" stroke="#3d4a55" stroke-width="2.2" marker-end="url(#hfull)"/><rect x="24.0" y="552" width="136.0" height="42" rx="7" fill="#eef5f1" stroke="#9ec9b4"/><text x="92" y="579" text-anchor="middle" fill="#1b2026" font-size="20">Load applet</text><rect x="14.0" y="618" width="156.0" height="42" rx="7" fill="#eef5f1" stroke="#9ec9b4"/><text x="92" y="645" text-anchor="middle" fill="#1b2026" font-size="20">Get signature</text><text x="389.5" y="667" text-anchor="middle" fill="#1b2026" font-size="21">JNLP send signature</text><line x1="92" y1="678" x2="687" y2="678" stroke="#8a949e" stroke-width="2.2" stroke-dasharray="7 5" marker-end="url(#hopen)"/><text x="497.0" y="715" text-anchor="middle" fill="#1b2026" font-size="21">redirect?token=operationId</text><line x1="687" y1="726" x2="307" y2="726" stroke="#3d4a55" stroke-width="2.2" marker-end="url(#hfull)"/><text x="497.0" y="763" text-anchor="middle" fill="#1b2026" font-size="21">/getSignature?token=operationId</text><line x1="307" y1="774" x2="687" y2="774" stroke="#3d4a55" stroke-width="2.2" marker-end="url(#hfull)"/><text x="497.0" y="811" text-anchor="middle" fill="#1b2026" font-size="21">signResult</text><line x1="687" y1="822" x2="307" y2="822" stroke="#8a949e" stroke-width="2.2" stroke-dasharray="7 5" marker-end="url(#hopen)"/><text x="199.5" y="859" text-anchor="middle" fill="#1b2026" font-size="21">download Signatura</text><line x1="307" y1="870" x2="92" y2="870" stroke="#3d4a55" stroke-width="2.2" marker-end="url(#hfull)"/>
</svg>